<?xml version="1.0" encoding="UTF-8"?>
<svg id="Layer_1" data-name="Layer 1" xmlns="http://www.w3.org/2000/svg" viewBox="0 0 32 32">
  <polygon points="5.91 4.22 1.2 4.22 0 4.22 1.2 6.07 3.07 8.93 5.91 8.93 10.62 8.93 10.62 10.17 5.91 10.17 3.87 10.17 5.91 13.31 6.13 13.64 6.94 14.88 10.62 14.88 10.62 18.36 10.62 20.54 12.27 23.07 15.33 27.78 15.33 23.07 15.33 18.36 15.33 13.64 15.33 8.93 15.33 4.22 10.62 4.22 5.91 4.22" fill="#a2ed67" fill-rule="evenodd"/>
  <polygon points="30.8 4.22 26.09 4.22 21.38 4.22 16.67 4.22 16.67 8.93 16.67 13.64 16.67 18.36 16.67 23.07 16.67 27.78 19.73 23.07 21.38 20.54 21.38 18.36 21.38 14.88 25.06 14.88 25.87 13.64 26.09 13.31 28.13 10.17 26.09 10.17 21.38 10.17 21.38 8.93 26.09 8.93 28.93 8.93 30.8 6.07 32 4.22 30.8 4.22" fill="#a2ed67" fill-rule="evenodd"/>
</svg>