<?xml version="1.0" encoding="UTF-8"?>
<svg id="Layer_1" data-name="Layer 1" xmlns="http://www.w3.org/2000/svg" xmlns:xlink="http://www.w3.org/1999/xlink" viewBox="0 0 400 250">
  <defs>
    <linearGradient id="linear-gradient" x1="-902.49" y1="585.56" x2="-901.32" y2="585.56" gradientTransform="translate(179426.41 679.48) scale(198.71 -.88)" gradientUnits="userSpaceOnUse">
      <stop offset="0" stop-color="#909090" stop-opacity="0"/>
      <stop offset=".52" stop-color="#464646" stop-opacity=".48"/>
      <stop offset="1" stop-color="#9d9d9d" stop-opacity="0"/>
    </linearGradient>
  </defs>
  <path id="Path_2-3" data-name="Path 2-3" d="m133.03,68.43l-.22-2.11c-.35-3.33-3.34-5.75-6.67-5.4-.03,0-.06,0-.09.01-9.98,1.2-20.15,2.4-29.97,3.97-3.24.51-5.49,3.5-5.09,6.75l10.57,84.93c.41,3.28,3.37,5.64,6.66,5.29l2.3-.25c3.32-.36,5.74-3.33,5.4-6.66-1.03-10.02-1.95-19.59-3.33-30.33-.42-3.27,1.84-6.28,5.1-6.78l7.36-1.13c3.16-.48,5.41-3.34,5.13-6.53l-.12-1.34c-.29-3.34-3.23-5.81-6.57-5.52-.04,0-.08,0-.12.01l-7.27.77c-5.82.69-6.32-1.97-6.66-5.25v-.06c-.29-4.54-1.22-8.71-1.86-14.78-.34-3.22,1.91-6.14,5.12-6.63l15.21-2.34c3.21-.49,5.46-3.42,5.12-6.64" fill="#a2ed67"/>
  <path id="Path_3-3" data-name="Path 3-3" d="m173.79,133.68c1.46.03,2.67-1.12,2.74-2.58.01-.32.02-.65.03-.97,0-3.12-.37-6.48-.37-9.35v-.02c0-1.39-1.06-2.56-2.44-2.69-5.63-.41-10.87-.33-15.93-.37-1.45,0-2.64-1.17-2.68-2.62-.16-5.84.02-15.78-.18-23.55-.04-1.47,1.12-2.7,2.59-2.74l13.12-.45c1.35-.03,2.47-1.07,2.59-2.42.03-.46.05-.93.05-1.4-.09-2.45-.31-4.89-.67-7.32-.15-1.36-1.3-2.4-2.67-2.41-5.55-.03-9.25-.14-12.28-.09-1.48.02-2.71-1.16-2.73-2.65,0-.04,0-.09,0-.13l.66-20.81v-.37l17.62-.65c1.49-.06,2.65-1.31,2.59-2.8,0,0,0,0,0-.01-.17-3.87-.35-6.79-.45-9.01-.06-1.42-1.22-2.55-2.64-2.57-1.96-.04-4-.04-6.16-.04-7.43,0-15.68.2-23.63.61-1.42.07-2.54,1.25-2.54,2.67-.06,20.12-.74,41.99-.74,63.53,0,8.23.12,16.33.37,24.3l.16,4.54c.05,1.48,1.29,2.64,2.76,2.59,6.11-.19,12.99-.29,19.39-.29,4.15,0,8.07,0,11.44.06" fill="#ffa640"/>
  <path id="Path_4-3" data-name="Path 4-3" d="m210.34,76.5l-1.55-9.71c-.46-2.93-3.21-4.94-6.14-4.49-5.99.94-11.37,2.64-14.37,4.86-7.6,5.73-9.35,15.58-9.35,24.18,0,1.62,0,3.12.12,4.61.87,13.34,18.45,22.81,18.45,39.63,0,1.31-.09,2.63-.28,3.93-.16.99-.59,1.91-1.24,2.67-4.21,4.96-10.76,5.49-15.93,5.49-2.98,0-5.4,2.42-5.4,5.4,0,.03,0,.06,0,.09l.08,5.04c.06,2.99,2.53,5.37,5.53,5.32.05,0,.1,0,.15,0,11.21-.5,20.6-2.63,26.25-7.82.29-.27.55-.57.78-.89,3.88-5.14,5.98-11.4,6.01-17.84,0-15.08-11.22-28.79-16.7-37.01-1.68-2.5-2.55-5.46-2.49-8.47,0-4.61,1.87-9.22,5.23-11.59,2.74-2.12,6.6-2.74,10.84-3.36h0Z" fill="#ffcd5c"/>
  <path id="Path_5-3" data-name="Path 5-3" d="m251.03,48.87c0-2.95,0-5.06-.03-6.71-.02-2.02-1.65-3.65-3.67-3.67-7.22-.08-14.94-.35-22.85-.35-7.04-.1-14.08.25-21.08,1.06-1.99.24-3.43,2.01-3.26,4.01.13,1.63.28,3.6.28,6.16v.04c0,2.05,1.66,3.71,3.71,3.71.08,0,.15,0,.22,0,3.09-.18,6.05-.49,9.04-.56,2.07-.07,3.8,1.56,3.86,3.63,0,.03,0,.06,0,.09l.12,55.67-.63,21.09c-.06,2.06,1.56,3.78,3.62,3.84.04,0,.07,0,.11,0h8.81c2,0,3.65-1.58,3.73-3.59.55-12.44.45-26.68.57-37.93.12-13.75.12-27.51.22-39.14.02-2.04,1.68-3.69,3.72-3.69,3.29-.02,6.76.07,9.76.1,2.06,0,3.74-1.66,3.75-3.72,0,0,0-.02,0-.02" fill="#5497ea"/>
  <path id="Path_6-3" data-name="Path 6-3" d="m259.22,144.48c1.17-.12,2.02-1.17,1.9-2.35h0s-3.11-29.47-3.11-29.47c-1.36-12.86-2.81-25.87-4.32-37.89-.16-1.17-1.23-1.99-2.4-1.84h-.02c-3.16.34-7.07.47-9.15.69-.63.07-1.29.42-1.07,2.11l7.24,64.97.24,2.72c.1,1.17,1.14,2.04,2.31,1.94.01,0,.03,0,.04,0l8.35-.88Z" fill="#be4ce8"/>
  <path id="Path_7-3" data-name="Path 7-3" d="m322.47,56.32l-11.3-2.78c-.99-.24-1.99.31-2.33,1.27-6.22,17.92-13.55,35.97-19.41,58.78-.56,2.19-3.39,1.82-3.88-.38-1.43-6.4-1.79-12.77-2.64-18.03-2.67-15.86-3.17-30.12-5.55-43.94-.17-.95-.99-1.64-1.95-1.64h-9.19c-.12,0-.24.02-.36.04l-2.94.56c-1.05.2-1.75,1.19-1.58,2.25l14.98,95.04c.13.84.79,1.5,1.63,1.64l11.96,1.95c.95.16,1.88-.4,2.19-1.32,10.13-30.49,22.35-63.92,31.76-90.88.36-1.02-.18-2.14-1.2-2.5-.06-.02-.13-.04-.19-.06" fill="#5ed8e8"/>
  <g id="TIckets-3" isolation="isolate">
    <text transform="translate(90.6 206.09)" fill="#fff" font-family="Hotel-Black, Hotel" font-size="43.61" font-weight="800" isolation="isolate"><tspan x="0" y="0" letter-spacing=".14em">TIC</tspan><tspan x="90.36" y="0" letter-spacing=".12em">K</tspan><tspan x="128.91" y="0" letter-spacing=".14em">ETS</tspan></text>
  </g>
  <rect id="Rectangle_2-3" data-name="Rectangle 2-3" x="90.6" y="166.6" width="234.2" height="1.03" fill="url(#linear-gradient)"/>
  <g id="Group_12" data-name="Group 12" opacity=".6">
    <circle id="Ellipse_3" data-name="Ellipse 3" cx="74.25" cy="58.88" r="9.42" fill="#ebe2d6"/>
    <circle id="Ellipse_4" data-name="Ellipse 4" cx="209.38" cy="11.45" r="4.24" fill="#ed2c66"/>
    <circle id="Ellipse_5" data-name="Ellipse 5" cx="162.97" cy="229.41" r="4.24" fill="#ed2c66"/>
    <circle id="Ellipse_6" data-name="Ellipse 6" cx="382.39" cy="21.32" r="3.61" fill="#d8df21"/>
    <circle id="Ellipse_7" data-name="Ellipse 7" cx="229.13" cy="152.4" r="3.61" fill="#d8df21"/>
    <circle id="Ellipse_8" data-name="Ellipse 8" cx="335.46" cy="126.12" r="3.28" fill="#29aae1" isolation="isolate" opacity=".16"/>
    <circle id="Ellipse_9" data-name="Ellipse 9" cx="39.16" cy="213.57" r="4.64" fill="#29aae1"/>
    <circle id="Ellipse_10" data-name="Ellipse 10" cx="79.52" cy="130.76" r="4.15" fill="#fea424"/>
    <circle id="Ellipse_11" data-name="Ellipse 11" cx="20.69" cy="19.99" r="6.69" fill="#f75128" isolation="isolate" opacity=".26"/>
    <circle id="Ellipse_12" data-name="Ellipse 12" cx="371.4" cy="236.1" r="6.69" fill="#f75128"/>
    <circle id="Ellipse_13" data-name="Ellipse 13" cx="297.9" cy="31.61" r="6.69" fill="#662d90"/>
  </g>
</svg>